# xmcd CD database file
#
# Track frame offsets:
#	150
#	19162
#	34922
#	46595
#	60692
#	73590
#	91835
#	105522
#	120335
#	135827
#
# Disc length: 2042 seconds
#
# Revision: 1
# Processed by: cddbd v1.5.2PL0 Copyright (c) Steve Scherf et al.
# Submitted via: CDex 1.51
#
DISCID=7307f80a
DTITLE=John Fogerty - Deja vu
DYEAR=2004
DGENRE=Rock
TTITLE0=Deja Vu (All Over Again)
TTITLE1=Sugar-Sugar (In My Live)
TTITLE2=She's Got Baggage
TTITLE3=Radar
TTITLE4=Honey Do
TTITLE5=Nobody's Here Anymore
TTITLE6=I Will Walk With You
TTITLE7=Rhubarb Pie
TTITLE8=Wicked Old Witch
TTITLE9=In The Garden
EXTD=YEAR: 2004
EXTT0=
EXTT1=
EXTT2=
EXTT3=
EXTT4=
EXTT5=
EXTT6=
EXTT7=
EXTT8=
EXTT9=
PLAYORDER=
